<svg width="24" height="25" viewBox="0 0 24 25" fill="none" xmlns="http://www.w3.org/2000/svg">
<path d="M5.60156 10.4141C5.60156 10.1514 5.73526 9.90497 5.96037 9.75274L11.507 6.00173C11.8031 5.80151 12.2 5.80151 12.4961 6.00173L18.0428 9.75274C18.2679 9.90497 18.4016 10.1514 18.4016 10.4141V17.4343C18.4016 18.1066 17.8285 18.6516 17.1216 18.6516H6.88156C6.17464 18.6516 5.60156 18.1066 5.60156 17.4343V10.4141Z" stroke="#666666" stroke-linecap="round" stroke-linejoin="round"/>
<path d="M13.6016 13.0516C13.6016 13.9352 12.8852 14.6516 12.0016 14.6516C11.1179 14.6516 10.4016 13.9352 10.4016 13.0516C10.4016 12.1679 11.1179 11.4516 12.0016 11.4516C12.8852 11.4516 13.6016 12.1679 13.6016 13.0516Z" stroke="#666666" stroke-linecap="round" stroke-linejoin="round"/>
</svg>
