<svg width="23" height="22" viewBox="0 0 23 22" fill="none" xmlns="http://www.w3.org/2000/svg">
<path d="M11.5 17.75L11.084 18.0274C11.1767 18.1664 11.3328 18.25 11.5 18.25C11.6672 18.25 11.8233 18.1664 11.916 18.0274L11.5 17.75ZM11.425 17.6374L11.0089 17.9148L11.425 17.6374ZM10.2993 16.1824L9.98185 16.5686L10.2993 16.1824ZM9.2662 15.6295L9.12091 16.1079L9.2662 15.6295ZM4.16349 14.681L4.60899 14.454L4.16349 14.681ZM4.81901 15.3365L5.04601 14.891L4.81901 15.3365ZM9.86197 4.57698L9.63498 5.02248L9.86197 4.57698ZM11.173 5.88803L10.7275 6.11502L11.173 5.88803ZM4.81901 4.41349L5.04601 4.85899L4.81901 4.41349ZM4.16349 5.06901L4.60899 5.29601L4.16349 5.06901ZM11.575 17.6374L11.9911 17.9148L11.575 17.6374ZM12.7007 16.1824L13.0182 16.5686L12.7007 16.1824ZM13.7338 15.6295L13.8791 16.1079L13.7338 15.6295ZM18.8365 14.681L18.391 14.454L18.8365 14.681ZM18.181 15.3365L17.954 14.891L18.181 15.3365ZM13.138 4.57698L13.365 5.02248L13.138 4.57698ZM11.827 5.88803L12.2725 6.11502L11.827 5.88803ZM18.181 4.41349L17.954 4.85899L18.181 4.41349ZM18.8365 5.06901L18.391 5.29601L18.8365 5.06901ZM6.4 4.75H6.7V3.75H6.4V4.75ZM4.5 13.1V6.65H3.5V13.1H4.5ZM11.916 17.4726L11.841 17.3601L11.0089 17.9148L11.084 18.0274L11.916 17.4726ZM7.43112 15H6.4V16H7.43112V15ZM11.841 17.3601C11.3373 16.6045 11.0319 16.1372 10.6168 15.7961L9.98185 16.5686C10.2551 16.7932 10.4707 17.1074 11.0089 17.9148L11.841 17.3601ZM7.43112 16C8.40146 16 8.78246 16.0051 9.12091 16.1079L9.4115 15.151C8.89741 14.9949 8.3392 15 7.43112 15V16ZM10.6168 15.7961C10.2613 15.5039 9.85176 15.2847 9.4115 15.151L9.12091 16.1079C9.43539 16.2034 9.72794 16.36 9.98185 16.5686L10.6168 15.7961ZM3.5 13.1C3.5 13.5118 3.49961 13.8507 3.5221 14.1259C3.54506 14.407 3.59434 14.6653 3.71799 14.908L4.60899 14.454C4.56915 14.3758 4.53669 14.2637 4.51878 14.0445C4.50039 13.8194 4.5 13.5283 4.5 13.1H3.5ZM6.4 15C5.97171 15 5.68056 14.9996 5.45552 14.9812C5.23631 14.9633 5.12421 14.9309 5.04601 14.891L4.59202 15.782C4.83469 15.9057 5.09304 15.9549 5.37409 15.9779C5.6493 16.0004 5.98821 16 6.4 16V15ZM3.71799 14.908C3.90973 15.2843 4.21569 15.5903 4.59202 15.782L5.04601 14.891C4.85785 14.7951 4.70487 14.6422 4.60899 14.454L3.71799 14.908ZM6.7 4.75C7.54833 4.75 8.15451 4.75039 8.62968 4.78921C9.09901 4.82756 9.39634 4.90089 9.63498 5.02248L10.089 4.13148C9.68586 3.92609 9.24229 3.83593 8.71111 3.79253C8.18577 3.74961 7.53183 3.75 6.7 3.75V4.75ZM12 9.05C12 8.21817 12.0004 7.56423 11.9575 7.03889C11.9141 6.50771 11.8239 6.06413 11.6185 5.66103L10.7275 6.11502C10.8491 6.35366 10.9224 6.65099 10.9608 7.12032C10.9996 7.59549 11 8.20167 11 9.05H12ZM9.63498 5.02248C10.1054 5.26217 10.4878 5.64462 10.7275 6.11502L11.6185 5.66103C11.283 5.00247 10.7475 4.46703 10.089 4.13148L9.63498 5.02248ZM6.4 3.75C5.98821 3.75 5.6493 3.74961 5.37409 3.7721C5.09304 3.79506 4.83469 3.84434 4.59202 3.96799L5.04601 4.85899C5.12421 4.81915 5.23631 4.78669 5.45552 4.76878C5.68056 4.75039 5.97171 4.75 6.4 4.75V3.75ZM4.5 6.65C4.5 6.22171 4.50039 5.93056 4.51878 5.70552C4.53669 5.48631 4.56915 5.37421 4.60899 5.29601L3.71799 4.84202C3.59434 5.08469 3.54506 5.34304 3.5221 5.62409C3.49961 5.8993 3.5 6.23821 3.5 6.65H4.5ZM4.59202 3.96799C4.21569 4.15973 3.90973 4.46569 3.71799 4.84202L4.60899 5.29601C4.70487 5.10785 4.85785 4.95487 5.04601 4.85899L4.59202 3.96799ZM16.6 3.75H16.3V4.75H16.6V3.75ZM11 9.05V17.75H12V9.05H11ZM19.5 13.1V6.65H18.5V13.1H19.5ZM11.916 18.0274L11.9911 17.9148L11.159 17.3601L11.084 17.4726L11.916 18.0274ZM15.5689 16H16.6V15H15.5689V16ZM11.9911 17.9148C12.5293 17.1074 12.7449 16.7932 13.0182 16.5686L12.3832 15.7961C11.9681 16.1372 11.6627 16.6045 11.159 17.3601L11.9911 17.9148ZM15.5689 15C14.6608 15 14.1026 14.9949 13.5885 15.151L13.8791 16.1079C14.2175 16.0051 14.5985 16 15.5689 16V15ZM13.0182 16.5686C13.2721 16.36 13.5646 16.2034 13.8791 16.1079L13.5885 15.151C13.1482 15.2847 12.7387 15.5039 12.3832 15.7961L13.0182 16.5686ZM18.5 13.1C18.5 13.5283 18.4996 13.8194 18.4812 14.0445C18.4633 14.2637 18.4309 14.3758 18.391 14.454L19.282 14.908C19.4057 14.6653 19.4549 14.407 19.4779 14.1259C19.5004 13.8507 19.5 13.5118 19.5 13.1H18.5ZM16.6 16C17.0118 16 17.3507 16.0004 17.6259 15.9779C17.907 15.9549 18.1653 15.9057 18.408 15.782L17.954 14.891C17.8758 14.9309 17.7637 14.9633 17.5445 14.9812C17.3194 14.9996 17.0283 15 16.6 15V16ZM18.391 14.454C18.2951 14.6422 18.1422 14.7951 17.954 14.891L18.408 15.782C18.7843 15.5903 19.0903 15.2843 19.282 14.908L18.391 14.454ZM16.3 3.75C15.4682 3.75 14.8142 3.74961 14.2889 3.79253C13.7577 3.83593 13.3141 3.92609 12.911 4.13148L13.365 5.02248C13.6037 4.90089 13.901 4.82756 14.3703 4.78921C14.8455 4.75039 15.4517 4.75 16.3 4.75V3.75ZM12 9.05C12 8.20167 12.0004 7.59549 12.0392 7.12032C12.0776 6.65099 12.1509 6.35366 12.2725 6.11502L11.3815 5.66103C11.1761 6.06413 11.0859 6.50771 11.0425 7.03889C10.9996 7.56423 11 8.21817 11 9.05H12ZM12.911 4.13148C12.2525 4.46703 11.717 5.00247 11.3815 5.66103L12.2725 6.11502C12.5122 5.64462 12.8946 5.26217 13.365 5.02248L12.911 4.13148ZM16.6 4.75C17.0283 4.75 17.3194 4.75039 17.5445 4.76878C17.7637 4.78669 17.8758 4.81915 17.954 4.85899L18.408 3.96799C18.1653 3.84434 17.907 3.79506 17.6259 3.7721C17.3507 3.74961 17.0118 3.75 16.6 3.75V4.75ZM19.5 6.65C19.5 6.23821 19.5004 5.8993 19.4779 5.62409C19.4549 5.34304 19.4057 5.08469 19.282 4.84202L18.391 5.29601C18.4309 5.37421 18.4633 5.48631 18.4812 5.70552C18.4996 5.93056 18.5 6.22171 18.5 6.65H19.5ZM17.954 4.85899C18.1422 4.95487 18.2951 5.10785 18.391 5.29601L19.282 4.84202C19.0903 4.4657 18.7843 4.15973 18.408 3.96799L17.954 4.85899Z" fill="#666666"/>
</svg>
