<svg width="28" height="28" viewBox="0 0 28 28" fill="none" xmlns="http://www.w3.org/2000/svg">
<path d="M6.90078 13.9992C6.90078 14.7172 6.31875 15.2992 5.60078 15.2992C4.88281 15.2992 4.30078 14.7172 4.30078 13.9992C4.30078 13.2812 4.88281 12.6992 5.60078 12.6992C6.31875 12.6992 6.90078 13.2812 6.90078 13.9992ZM15.3008 13.9992C15.3008 14.7172 14.7188 15.2992 14.0008 15.2992C13.2828 15.2992 12.7008 14.7172 12.7008 13.9992C12.7008 13.2812 13.2828 12.6992 14.0008 12.6992C14.7188 12.6992 15.3008 13.2812 15.3008 13.9992ZM23.7008 13.9992C23.7008 14.7172 23.1188 15.2992 22.4008 15.2992C21.6828 15.2992 21.1008 14.7172 21.1008 13.9992C21.1008 13.2812 21.6828 12.6992 22.4008 12.6992C23.1188 12.6992 23.7008 13.2812 23.7008 13.9992Z" stroke="#A5B9D3" stroke-width="3"/>
</svg>
